<svg width="144" height="38" viewBox="0 0 144 38" fill="none" xmlns="http://www.w3.org/2000/svg">
<mask id="path-1-inside-1_6701_468" fill="white">
<path fill-rule="evenodd" clip-rule="evenodd" d="M23.9432 37.4741C31.9603 35.0612 37.7931 27.6992 37.7931 18.9916C37.7931 10.2416 31.9032 2.85024 23.8257 0.474121H125.5C135.717 0.474121 144 8.75685 144 18.9741C144 29.1914 135.717 37.4741 125.5 37.4741H23.9432Z"/>
</mask>
<path fill-rule="evenodd" clip-rule="evenodd" d="M23.9432 37.4741C31.9603 35.0612 37.7931 27.6992 37.7931 18.9916C37.7931 10.2416 31.9032 2.85024 23.8257 0.474121H125.5C135.717 0.474121 144 8.75685 144 18.9741C144 29.1914 135.717 37.4741 125.5 37.4741H23.9432Z" fill="#1074EB"/>
<path d="M23.9432 37.4741L23.655 36.5166L23.9432 38.4741V37.4741ZM23.8257 0.474121V-0.525879L23.5435 1.43347L23.8257 0.474121ZM36.7931 18.9916C36.7931 27.2387 31.2682 34.2251 23.655 36.5166L24.2314 38.4317C32.6524 35.8972 38.7931 28.1596 38.7931 18.9916H36.7931ZM23.5435 1.43347C31.2141 3.68989 36.7931 10.7043 36.7931 18.9916H38.7931C38.7931 9.77884 32.5924 2.01059 24.1079 -0.485233L23.5435 1.43347ZM23.8257 1.47412H125.5V-0.525879H23.8257V1.47412ZM125.5 1.47412C135.165 1.47412 143 9.30914 143 18.9741H145C145 8.20457 136.27 -0.525879 125.5 -0.525879V1.47412ZM143 18.9741C143 28.6391 135.165 36.4741 125.5 36.4741V38.4741C136.27 38.4741 145 29.7437 145 18.9741H143ZM125.5 36.4741H23.9432V38.4741H125.5V36.4741Z" fill="black" mask="url(#path-1-inside-1_6701_468)"/>
<path d="M35.304 18.9917C35.304 28.4749 27.5187 36.1731 17.902 36.1731C8.28528 36.1731 0.5 28.4749 0.5 18.9917C0.5 9.50848 8.28528 1.81027 17.902 1.81027C27.5187 1.81027 35.304 9.50848 35.304 18.9917Z" fill="#FF9900" stroke="black"/>
<path d="M20.0447 16.2419H24.9753C25.3384 16.2419 25.5806 16.6167 25.4313 16.9476L18.3695 32.6047C18.1482 33.0955 17.4139 32.9375 17.4137 32.399L17.4104 23.2967C17.4101 22.4683 16.7383 21.7967 15.9099 21.7967H10.9792C10.6162 21.7967 10.374 21.4219 10.5233 21.091L17.585 5.43384C17.8064 4.94307 18.5406 5.10111 18.5408 5.63954L18.5442 14.7419C18.5445 15.5703 19.2163 16.2419 20.0447 16.2419Z" fill="white" stroke="black"/>
<mask id="path-5-outside-2_6701_468" maskUnits="userSpaceOnUse" x="43.9624" y="7.297" width="85" height="24" fill="black">
<rect fill="white" x="43.9624" y="7.297" width="85" height="24"/>
<path d="M53.2639 29.3426C51.4657 29.3426 49.9573 29.0565 48.7385 28.4842C47.5198 27.9119 46.5907 27.1621 45.9514 26.2346C45.332 25.3071 45.0024 24.3205 44.9624 23.2746C44.9624 23.097 45.0223 22.949 45.1422 22.8306C45.2621 22.7122 45.4119 22.653 45.5918 22.653H48.9783C49.218 22.653 49.4078 22.7122 49.5477 22.8306C49.7075 22.9293 49.8274 23.0674 49.9073 23.245C50.1071 23.7778 50.3669 24.2119 50.6865 24.5474C51.0262 24.8829 51.4158 25.1295 51.8553 25.2874C52.2949 25.4453 52.7644 25.5242 53.2639 25.5242C53.9032 25.5242 54.4926 25.3959 55.0321 25.1394C55.5715 24.8631 56.0011 24.4685 56.3208 23.9554C56.6404 23.4423 56.8003 22.8109 56.8003 22.061C56.8003 21.4098 56.6504 20.8375 56.3507 20.3442C56.051 19.8509 55.6315 19.4661 55.092 19.1898C54.5526 18.9135 53.9432 18.7754 53.2639 18.7754C52.7444 18.7754 52.3149 18.8346 51.9752 18.953C51.6555 19.0714 51.3858 19.2194 51.166 19.397C50.9463 19.5549 50.7465 19.7029 50.5667 19.841C50.3868 19.9594 50.187 20.0186 49.9673 20.0186H46.6407C46.4609 20.0186 46.301 19.9594 46.1612 19.841C46.0413 19.7029 45.9814 19.545 45.9814 19.3674L47.0303 9.1554C47.0702 8.87913 47.1701 8.67193 47.33 8.5338C47.5098 8.37593 47.7196 8.297 47.9593 8.297H59.5874C59.8072 8.297 59.987 8.36606 60.1269 8.5042C60.2667 8.64233 60.3366 8.81993 60.3366 9.037V11.405C60.3366 11.6023 60.2667 11.7701 60.1269 11.9082C59.987 12.0463 59.8072 12.1154 59.5874 12.1154H50.9263L50.4767 16.4666C50.8763 16.2101 51.3658 15.9831 51.9452 15.7858C52.5446 15.5687 53.3738 15.4602 54.4327 15.4602C55.3917 15.4602 56.3008 15.6181 57.1599 15.9338C58.039 16.2298 58.8182 16.6738 59.4975 17.2658C60.1768 17.8578 60.7063 18.5682 61.0859 19.397C61.4855 20.2061 61.6853 21.1335 61.6853 22.1794C61.6853 23.6002 61.3456 24.8533 60.6663 25.9386C59.987 27.0042 59.018 27.8429 57.7593 28.4546C56.5006 29.0466 55.0021 29.3426 53.2639 29.3426Z"/>
<path d="M72.4004 29.017C72.1807 29.017 72.0008 28.9479 71.861 28.8098C71.7211 28.6717 71.6512 28.4941 71.6512 28.277V9.037C71.6512 8.81993 71.7211 8.64233 71.861 8.5042C72.0008 8.36606 72.1807 8.297 72.4004 8.297H75.5772C75.797 8.297 75.9768 8.36606 76.1166 8.5042C76.2565 8.64233 76.3264 8.81993 76.3264 9.037V15.7858L82.5001 8.8594C82.58 8.741 82.7099 8.6226 82.8897 8.5042C83.0895 8.36606 83.3492 8.297 83.6689 8.297H87.2952C87.475 8.297 87.6248 8.36606 87.7447 8.5042C87.8646 8.6226 87.9245 8.76073 87.9245 8.9186C87.9245 9.05673 87.8846 9.17513 87.8046 9.2738L80.1025 18.213L88.3741 28.0402C88.454 28.1191 88.4939 28.2375 88.4939 28.3954C88.4939 28.5533 88.434 28.7013 88.3141 28.8394C88.1942 28.9578 88.0444 29.017 87.8646 29.017H84.1184C83.7588 29.017 83.4891 28.9381 83.3093 28.7802C83.1294 28.6223 83.0096 28.5138 82.9496 28.4546L76.3264 20.877V28.277C76.3264 28.4941 76.2565 28.6717 76.1166 28.8098C75.9768 28.9479 75.797 29.017 75.5772 29.017H72.4004Z"/>
<path d="M97.1089 29.017C96.7893 29.017 96.5295 28.9381 96.3297 28.7802C96.1499 28.6026 96.02 28.3954 95.9401 28.1586L89.6466 9.185C89.6266 9.08633 89.6166 8.99753 89.6166 8.9186C89.6166 8.76073 89.6765 8.6226 89.7964 8.5042C89.9163 8.36606 90.0661 8.297 90.246 8.297H93.3927C93.6924 8.297 93.9222 8.3858 94.082 8.5634C94.2618 8.72126 94.3717 8.86926 94.4117 9.0074L99.0869 23.4818L103.732 9.0074C103.792 8.86926 103.902 8.72126 104.062 8.5634C104.222 8.3858 104.451 8.297 104.751 8.297H107.898C108.078 8.297 108.228 8.36606 108.347 8.5042C108.467 8.6226 108.527 8.76073 108.527 8.9186C108.527 8.99753 108.517 9.08633 108.497 9.185L102.204 28.1586C102.144 28.3954 102.014 28.6026 101.814 28.7802C101.634 28.9381 101.375 29.017 101.035 29.017H97.1089Z"/>
<path d="M116.877 29.017C116.657 29.017 116.478 28.9479 116.338 28.8098C116.198 28.6717 116.128 28.4941 116.128 28.277V12.4114H110.674C110.474 12.4114 110.304 12.3423 110.164 12.2042C110.024 12.0661 109.954 11.8983 109.954 11.701V9.037C109.954 8.81993 110.024 8.64233 110.164 8.5042C110.304 8.36606 110.474 8.297 110.674 8.297H126.377C126.597 8.297 126.777 8.36606 126.917 8.5042C127.057 8.64233 127.127 8.81993 127.127 9.037V11.701C127.127 11.8983 127.057 12.0661 126.917 12.2042C126.777 12.3423 126.597 12.4114 126.377 12.4114H120.953V28.277C120.953 28.4941 120.883 28.6717 120.743 28.8098C120.603 28.9479 120.424 29.017 120.204 29.017H116.877Z"/>
</mask>
<path d="M53.2639 29.3426C51.4657 29.3426 49.9573 29.0565 48.7385 28.4842C47.5198 27.9119 46.5907 27.1621 45.9514 26.2346C45.332 25.3071 45.0024 24.3205 44.9624 23.2746C44.9624 23.097 45.0223 22.949 45.1422 22.8306C45.2621 22.7122 45.4119 22.653 45.5918 22.653H48.9783C49.218 22.653 49.4078 22.7122 49.5477 22.8306C49.7075 22.9293 49.8274 23.0674 49.9073 23.245C50.1071 23.7778 50.3669 24.2119 50.6865 24.5474C51.0262 24.8829 51.4158 25.1295 51.8553 25.2874C52.2949 25.4453 52.7644 25.5242 53.2639 25.5242C53.9032 25.5242 54.4926 25.3959 55.0321 25.1394C55.5715 24.8631 56.0011 24.4685 56.3208 23.9554C56.6404 23.4423 56.8003 22.8109 56.8003 22.061C56.8003 21.4098 56.6504 20.8375 56.3507 20.3442C56.051 19.8509 55.6315 19.4661 55.092 19.1898C54.5526 18.9135 53.9432 18.7754 53.2639 18.7754C52.7444 18.7754 52.3149 18.8346 51.9752 18.953C51.6555 19.0714 51.3858 19.2194 51.166 19.397C50.9463 19.5549 50.7465 19.7029 50.5667 19.841C50.3868 19.9594 50.187 20.0186 49.9673 20.0186H46.6407C46.4609 20.0186 46.301 19.9594 46.1612 19.841C46.0413 19.7029 45.9814 19.545 45.9814 19.3674L47.0303 9.1554C47.0702 8.87913 47.1701 8.67193 47.33 8.5338C47.5098 8.37593 47.7196 8.297 47.9593 8.297H59.5874C59.8072 8.297 59.987 8.36606 60.1269 8.5042C60.2667 8.64233 60.3366 8.81993 60.3366 9.037V11.405C60.3366 11.6023 60.2667 11.7701 60.1269 11.9082C59.987 12.0463 59.8072 12.1154 59.5874 12.1154H50.9263L50.4767 16.4666C50.8763 16.2101 51.3658 15.9831 51.9452 15.7858C52.5446 15.5687 53.3738 15.4602 54.4327 15.4602C55.3917 15.4602 56.3008 15.6181 57.1599 15.9338C58.039 16.2298 58.8182 16.6738 59.4975 17.2658C60.1768 17.8578 60.7063 18.5682 61.0859 19.397C61.4855 20.2061 61.6853 21.1335 61.6853 22.1794C61.6853 23.6002 61.3456 24.8533 60.6663 25.9386C59.987 27.0042 59.018 27.8429 57.7593 28.4546C56.5006 29.0466 55.0021 29.3426 53.2639 29.3426Z" fill="white"/>
<path d="M72.4004 29.017C72.1807 29.017 72.0008 28.9479 71.861 28.8098C71.7211 28.6717 71.6512 28.4941 71.6512 28.277V9.037C71.6512 8.81993 71.7211 8.64233 71.861 8.5042C72.0008 8.36606 72.1807 8.297 72.4004 8.297H75.5772C75.797 8.297 75.9768 8.36606 76.1166 8.5042C76.2565 8.64233 76.3264 8.81993 76.3264 9.037V15.7858L82.5001 8.8594C82.58 8.741 82.7099 8.6226 82.8897 8.5042C83.0895 8.36606 83.3492 8.297 83.6689 8.297H87.2952C87.475 8.297 87.6248 8.36606 87.7447 8.5042C87.8646 8.6226 87.9245 8.76073 87.9245 8.9186C87.9245 9.05673 87.8846 9.17513 87.8046 9.2738L80.1025 18.213L88.3741 28.0402C88.454 28.1191 88.4939 28.2375 88.4939 28.3954C88.4939 28.5533 88.434 28.7013 88.3141 28.8394C88.1942 28.9578 88.0444 29.017 87.8646 29.017H84.1184C83.7588 29.017 83.4891 28.9381 83.3093 28.7802C83.1294 28.6223 83.0096 28.5138 82.9496 28.4546L76.3264 20.877V28.277C76.3264 28.4941 76.2565 28.6717 76.1166 28.8098C75.9768 28.9479 75.797 29.017 75.5772 29.017H72.4004Z" fill="white"/>
<path d="M97.1089 29.017C96.7893 29.017 96.5295 28.9381 96.3297 28.7802C96.1499 28.6026 96.02 28.3954 95.9401 28.1586L89.6466 9.185C89.6266 9.08633 89.6166 8.99753 89.6166 8.9186C89.6166 8.76073 89.6765 8.6226 89.7964 8.5042C89.9163 8.36606 90.0661 8.297 90.246 8.297H93.3927C93.6924 8.297 93.9222 8.3858 94.082 8.5634C94.2618 8.72126 94.3717 8.86926 94.4117 9.0074L99.0869 23.4818L103.732 9.0074C103.792 8.86926 103.902 8.72126 104.062 8.5634C104.222 8.3858 104.451 8.297 104.751 8.297H107.898C108.078 8.297 108.228 8.36606 108.347 8.5042C108.467 8.6226 108.527 8.76073 108.527 8.9186C108.527 8.99753 108.517 9.08633 108.497 9.185L102.204 28.1586C102.144 28.3954 102.014 28.6026 101.814 28.7802C101.634 28.9381 101.375 29.017 101.035 29.017H97.1089Z" fill="white"/>
<path d="M116.877 29.017C116.657 29.017 116.478 28.9479 116.338 28.8098C116.198 28.6717 116.128 28.4941 116.128 28.277V12.4114H110.674C110.474 12.4114 110.304 12.3423 110.164 12.2042C110.024 12.0661 109.954 11.8983 109.954 11.701V9.037C109.954 8.81993 110.024 8.64233 110.164 8.5042C110.304 8.36606 110.474 8.297 110.674 8.297H126.377C126.597 8.297 126.777 8.36606 126.917 8.5042C127.057 8.64233 127.127 8.81993 127.127 9.037V11.701C127.127 11.8983 127.057 12.0661 126.917 12.2042C126.777 12.3423 126.597 12.4114 126.377 12.4114H120.953V28.277C120.953 28.4941 120.883 28.6717 120.743 28.8098C120.603 28.9479 120.424 29.017 120.204 29.017H116.877Z" fill="white"/>
<path d="M53.2639 29.3426C51.4657 29.3426 49.9573 29.0565 48.7385 28.4842C47.5198 27.9119 46.5907 27.1621 45.9514 26.2346C45.332 25.3071 45.0024 24.3205 44.9624 23.2746C44.9624 23.097 45.0223 22.949 45.1422 22.8306C45.2621 22.7122 45.4119 22.653 45.5918 22.653H48.9783C49.218 22.653 49.4078 22.7122 49.5477 22.8306C49.7075 22.9293 49.8274 23.0674 49.9073 23.245C50.1071 23.7778 50.3669 24.2119 50.6865 24.5474C51.0262 24.8829 51.4158 25.1295 51.8553 25.2874C52.2949 25.4453 52.7644 25.5242 53.2639 25.5242C53.9032 25.5242 54.4926 25.3959 55.0321 25.1394C55.5715 24.8631 56.0011 24.4685 56.3208 23.9554C56.6404 23.4423 56.8003 22.8109 56.8003 22.061C56.8003 21.4098 56.6504 20.8375 56.3507 20.3442C56.051 19.8509 55.6315 19.4661 55.092 19.1898C54.5526 18.9135 53.9432 18.7754 53.2639 18.7754C52.7444 18.7754 52.3149 18.8346 51.9752 18.953C51.6555 19.0714 51.3858 19.2194 51.166 19.397C50.9463 19.5549 50.7465 19.7029 50.5667 19.841C50.3868 19.9594 50.187 20.0186 49.9673 20.0186H46.6407C46.4609 20.0186 46.301 19.9594 46.1612 19.841C46.0413 19.7029 45.9814 19.545 45.9814 19.3674L47.0303 9.1554C47.0702 8.87913 47.1701 8.67193 47.33 8.5338C47.5098 8.37593 47.7196 8.297 47.9593 8.297H59.5874C59.8072 8.297 59.987 8.36606 60.1269 8.5042C60.2667 8.64233 60.3366 8.81993 60.3366 9.037V11.405C60.3366 11.6023 60.2667 11.7701 60.1269 11.9082C59.987 12.0463 59.8072 12.1154 59.5874 12.1154H50.9263L50.4767 16.4666C50.8763 16.2101 51.3658 15.9831 51.9452 15.7858C52.5446 15.5687 53.3738 15.4602 54.4327 15.4602C55.3917 15.4602 56.3008 15.6181 57.1599 15.9338C58.039 16.2298 58.8182 16.6738 59.4975 17.2658C60.1768 17.8578 60.7063 18.5682 61.0859 19.397C61.4855 20.2061 61.6853 21.1335 61.6853 22.1794C61.6853 23.6002 61.3456 24.8533 60.6663 25.9386C59.987 27.0042 59.018 27.8429 57.7593 28.4546C56.5006 29.0466 55.0021 29.3426 53.2639 29.3426Z" stroke="black" stroke-width="2" mask="url(#path-5-outside-2_6701_468)"/>
<path d="M72.4004 29.017C72.1807 29.017 72.0008 28.9479 71.861 28.8098C71.7211 28.6717 71.6512 28.4941 71.6512 28.277V9.037C71.6512 8.81993 71.7211 8.64233 71.861 8.5042C72.0008 8.36606 72.1807 8.297 72.4004 8.297H75.5772C75.797 8.297 75.9768 8.36606 76.1166 8.5042C76.2565 8.64233 76.3264 8.81993 76.3264 9.037V15.7858L82.5001 8.8594C82.58 8.741 82.7099 8.6226 82.8897 8.5042C83.0895 8.36606 83.3492 8.297 83.6689 8.297H87.2952C87.475 8.297 87.6248 8.36606 87.7447 8.5042C87.8646 8.6226 87.9245 8.76073 87.9245 8.9186C87.9245 9.05673 87.8846 9.17513 87.8046 9.2738L80.1025 18.213L88.3741 28.0402C88.454 28.1191 88.4939 28.2375 88.4939 28.3954C88.4939 28.5533 88.434 28.7013 88.3141 28.8394C88.1942 28.9578 88.0444 29.017 87.8646 29.017H84.1184C83.7588 29.017 83.4891 28.9381 83.3093 28.7802C83.1294 28.6223 83.0096 28.5138 82.9496 28.4546L76.3264 20.877V28.277C76.3264 28.4941 76.2565 28.6717 76.1166 28.8098C75.9768 28.9479 75.797 29.017 75.5772 29.017H72.4004Z" stroke="black" stroke-width="2" mask="url(#path-5-outside-2_6701_468)"/>
<path d="M97.1089 29.017C96.7893 29.017 96.5295 28.9381 96.3297 28.7802C96.1499 28.6026 96.02 28.3954 95.9401 28.1586L89.6466 9.185C89.6266 9.08633 89.6166 8.99753 89.6166 8.9186C89.6166 8.76073 89.6765 8.6226 89.7964 8.5042C89.9163 8.36606 90.0661 8.297 90.246 8.297H93.3927C93.6924 8.297 93.9222 8.3858 94.082 8.5634C94.2618 8.72126 94.3717 8.86926 94.4117 9.0074L99.0869 23.4818L103.732 9.0074C103.792 8.86926 103.902 8.72126 104.062 8.5634C104.222 8.3858 104.451 8.297 104.751 8.297H107.898C108.078 8.297 108.228 8.36606 108.347 8.5042C108.467 8.6226 108.527 8.76073 108.527 8.9186C108.527 8.99753 108.517 9.08633 108.497 9.185L102.204 28.1586C102.144 28.3954 102.014 28.6026 101.814 28.7802C101.634 28.9381 101.375 29.017 101.035 29.017H97.1089Z" stroke="black" stroke-width="2" mask="url(#path-5-outside-2_6701_468)"/>
<path d="M116.877 29.017C116.657 29.017 116.478 28.9479 116.338 28.8098C116.198 28.6717 116.128 28.4941 116.128 28.277V12.4114H110.674C110.474 12.4114 110.304 12.3423 110.164 12.2042C110.024 12.0661 109.954 11.8983 109.954 11.701V9.037C109.954 8.81993 110.024 8.64233 110.164 8.5042C110.304 8.36606 110.474 8.297 110.674 8.297H126.377C126.597 8.297 126.777 8.36606 126.917 8.5042C127.057 8.64233 127.127 8.81993 127.127 9.037V11.701C127.127 11.8983 127.057 12.0661 126.917 12.2042C126.777 12.3423 126.597 12.4114 126.377 12.4114H120.953V28.277C120.953 28.4941 120.883 28.6717 120.743 28.8098C120.603 28.9479 120.424 29.017 120.204 29.017H116.877Z" stroke="black" stroke-width="2" mask="url(#path-5-outside-2_6701_468)"/>
</svg>
